<svg width="20" height="24" viewBox="0 0 20 24" fill="none" xmlns="http://www.w3.org/2000/svg">
<path d="M10.0096 24L9.1983 22.6636C6.83908 18.7777 3.88042 14.9529 1.47696 12.6818L0.749268 11.9941L1.48286 11.3128C3.99241 8.98181 6.8748 5.25548 9.19324 1.34484L9.99039 0L10.8017 1.33636C13.1609 5.2222 16.1196 9.04706 18.523 11.3182L19.2507 12.0059L18.5171 12.6872C16.0076 15.0181 13.1252 18.7445 10.8068 22.6551L10.0096 24ZM3.46614 12.0067C5.5563 14.1344 7.93699 17.1951 9.99086 20.3924C12.0355 17.1407 14.3477 14.1717 16.5338 11.9933C14.4437 9.86569 12.063 6.80498 10.0091 3.60769C7.9645 6.85931 5.65225 9.82828 3.46614 12.0067Z" fill="#0DFF6E"/>
</svg>
