<svg width="512" height="510" viewBox="0 0 512 510" fill="none" xmlns="http://www.w3.org/2000/svg">
<path d="M341.333 467.333H298.667V424.667H213.333V467.333H170.667C158.891 467.333 149.333 476.891 149.333 488.667C149.333 500.443 158.891 510 170.667 510H341.333C353.131 510 362.667 500.443 362.667 488.667C362.667 476.891 353.131 467.333 341.333 467.333Z" fill="white"/>
<path d="M474.667 83.3333H457.387C452.907 97.8399 446.933 112.133 439.893 126H469.333V382H42.6667V126H82.7733C84.9067 115.973 89.8133 106.8 97.28 99.3333C103.04 93.5733 109.44 88.0266 116.48 83.3333H37.3333C16.8533 83.3333 0 100.187 0 120.667V387.333C0 407.813 16.8533 424.667 37.3333 424.667H474.667C495.147 424.667 512 407.813 512 387.333V120.667C512 100.187 495.147 83.3333 474.667 83.3333Z" fill="white"/>
<path d="M424.32 3.80264C422.272 1.75464 419.221 0.581304 416.576 0.687971C356.267 1.81864 285.909 37.0186 241.237 88.1546C192.917 89.8613 152.576 104.432 127.424 129.584C124.693 132.315 123.648 136.304 124.693 140.016C125.739 143.749 128.725 146.608 132.48 147.504L177.899 158.384L177.621 158.683C173.824 162.885 173.995 169.349 178.005 173.36L254.741 250.096C256.811 252.187 259.541 253.211 262.293 253.211C264.853 253.211 267.392 252.315 269.419 250.48L269.717 250.203L280.597 295.621C281.493 299.376 284.352 302.363 288.085 303.408C289.045 303.685 290.005 303.813 290.987 303.813C293.781 303.813 296.491 302.725 298.539 300.699C323.712 275.525 338.261 235.205 339.989 186.864C391.189 142.043 426.325 71.7706 427.456 11.5253C427.499 8.6453 426.368 5.85064 424.32 3.80264V3.80264Z" fill="white"/>
<path d="M144.043 221.403C129.728 235.717 111.403 295.173 107.883 306.949C106.752 310.704 107.797 314.779 110.549 317.552C112.576 319.579 115.307 320.667 118.101 320.667C119.125 320.667 120.149 320.517 121.173 320.219C132.949 316.699 192.384 298.395 206.72 284.059C224 266.779 224 238.683 206.72 221.381C189.397 204.101 161.301 204.123 144.043 221.403V221.403Z" fill="white"/>
</svg>
