<svg width="512" height="512" viewBox="0 0 512 512" fill="none" xmlns="http://www.w3.org/2000/svg">
<g clip-path="url(#clip0)">
<path d="M505.877 318.08L431.211 259.413C426.389 255.637 419.819 254.933 414.336 257.621C408.832 260.288 405.333 265.877 405.333 272V311.253C344.896 321.451 298.667 374.016 298.667 437.333V490.667C298.667 502.443 308.224 512 320 512C331.776 512 341.333 502.443 341.333 490.667V437.333C341.333 397.696 368.64 364.565 405.333 355.029V389.333C405.333 395.456 408.832 401.045 414.336 403.712C416.555 404.8 418.944 405.333 421.333 405.333C424.853 405.333 428.352 404.181 431.211 401.92L505.877 343.253C509.76 340.224 512 335.573 512 330.667C512 325.76 509.76 321.109 505.877 318.08Z" fill="#0A3F74"/>
<path d="M384 0H64C28.8 0 0 28.8 0 64V341.333C0 376.533 28.8 405.333 64 405.333H259.2C261.973 390.4 266.667 376.107 273.28 362.667H64C52.2667 362.667 42.6667 353.067 42.6667 341.333V106.667H405.333V215.68C419.413 211.627 434.773 213.12 448 219.733V64C448 28.8 419.2 0 384 0V0Z" fill="#0A3F74"/>
</g>
<defs>
<clipPath id="clip0">
<rect width="512" height="512" fill="white"/>
</clipPath>
</defs>
</svg>
