<svg width="512" height="513" viewBox="0 0 512 513" fill="none" xmlns="http://www.w3.org/2000/svg">
<path d="M255.968 0.328979C114.624 0.328979 0 117.847 0 262.817C0 378.767 73.344 477.135 175.104 511.874C187.904 514.292 192.576 506.187 192.576 499.226C192.576 492.985 192.352 476.481 192.224 454.585C121.024 470.435 105.984 419.388 105.984 419.388C94.368 389.061 77.568 380.989 77.568 380.989C54.304 364.714 79.296 365.041 79.296 365.041C104.992 366.904 118.496 392.1 118.496 392.1C141.344 432.199 178.432 420.63 193.024 413.898C195.328 396.937 201.952 385.368 209.28 378.8C152.448 372.165 92.672 349.649 92.672 249.091C92.672 220.431 102.656 196.999 119.04 178.633C116.384 171.999 107.616 145.299 121.536 109.187C121.536 109.187 143.04 102.128 191.936 136.083C212.352 130.266 234.24 127.357 256.032 127.259C277.76 127.39 299.68 130.266 320.128 136.116C368.992 102.161 390.464 109.22 390.464 109.22C404.416 145.364 395.648 172.031 393.024 178.665C409.44 197.032 419.328 220.464 419.328 249.124C419.328 349.943 359.488 372.133 302.464 378.636C311.648 386.741 319.84 402.754 319.84 427.232C319.84 462.33 319.52 490.632 319.52 499.226C319.52 506.253 324.128 514.423 337.12 511.841C438.72 477.069 512 378.734 512 262.817C512 117.847 397.376 0.328979 255.968 0.328979Z" fill="#0A3F74"/>
</svg>
