<svg width="453" height="452" viewBox="0 0 453 452" fill="none" xmlns="http://www.w3.org/2000/svg">
<path d="M438.755 425.516H424.63V164.205C424.63 156.892 418.701 150.963 411.388 150.963H358.42C351.107 150.963 345.178 156.892 345.178 164.205V425.516H318.693V252.486C318.693 245.172 312.764 239.244 305.451 239.244H252.483C245.17 239.244 239.241 245.172 239.241 252.486V425.516H212.757V301.04C212.757 293.727 206.828 287.798 199.514 287.798H146.546C139.233 287.798 133.304 293.727 133.304 301.04V425.516H106.82V332.821C106.82 325.508 100.891 319.579 93.5776 319.579H40.6091C33.296 319.579 27.367 325.508 27.367 332.821V425.516H13.2421C5.92893 425.516 0 431.445 0 438.758C0 446.071 5.92893 452 13.2421 452H438.755C446.068 452 451.997 446.071 451.997 438.758C451.997 431.445 446.068 425.516 438.755 425.516Z" fill="white"/>
<path d="M13.2421 284.535C95.8887 284.535 185.513 254.853 265.607 200.957C328.335 158.746 380.624 104.821 413.104 49.6042L425.965 97.5997C427.551 103.516 435.205 108.628 442.183 106.963C449.297 105.266 453.439 97.809 451.546 90.7447L429.862 9.8178C427.968 2.75446 420.711 -1.43888 413.644 0.454744L332.717 22.1391C325.653 24.0319 321.461 31.293 323.354 38.3572C325.247 45.4214 332.505 49.6148 339.572 47.7202L391.706 33.7507C361.404 86.4066 311.324 138.27 250.821 178.984C175.051 229.971 90.6775 258.051 13.2421 258.051C5.92893 258.051 0 263.98 0 271.293C0 278.606 5.92893 284.535 13.2421 284.535V284.535Z" fill="white"/>
</svg>
