<?xml version="1.0" encoding="utf-8"?>
<!-- Generator: Adobe Illustrator 21.0.0, SVG Export Plug-In . SVG Version: 6.00 Build 0)  -->
<svg version="1.1" id="Layer_1" xmlns="http://www.w3.org/2000/svg" xmlns:xlink="http://www.w3.org/1999/xlink" x="0px" y="0px"
	 viewBox="0 0 461.7 461.7" style="enable-background:new 0 0 461.7 461.7;" xml:space="preserve">
<style type="text/css">
	.st0{fill:#010101;}
	.st1{fill:#FFFFFF;}
</style>
<g>
	<path class="st1" d="M46.6,340.8c6-11.5,11.6-22.5,17.4-33.4c9.7-18.6,19.4-37.3,29.3-55.8c1.3-2.5,1.3-4.3,0-6.7
		c-3.8-7.1-7.3-14.3-11.3-22.3c-4.9,9.6-9.4,18.4-13.8,27.2c-14.8,29.3-29.5,58.5-44.2,87.8c-1.2,2.3-2.3,3.6-5.1,3.4
		c-4-0.3-8-0.1-12.2-0.1c0.6-3.4,2.5-6,3.9-8.7c20.4-40.5,40.9-81,61.2-121.5c1.5-3,3.2-3.6,6.4-4c9-1.3,13.5,2,17.5,10.4
		c17.4,35.9,35.7,71.3,54.1,107.5c3.7-7.2,7.1-13.9,10.5-20.7c1.1-2.2-0.9-3.7-1.7-5.4c-14.6-29-29.2-57.9-43.8-86.8
		c-2.4-4.8-2.3-4.3,3-5c8-1,12.1,1.7,15.6,9.3c10.6,22.6,22.3,44.7,33.6,67.1c0.5,1,1.1,2,2,3.8c3.5-7,6.8-13.4,9.9-19.8
		c0.8-1.7-0.6-3.2-1.4-4.6c-8.6-17.2-17.3-34.3-25.9-51.4c-0.6-1.1-1.1-2.3-2-4.2c5,0,9.4,0.2,13.8-0.1c2.6-0.1,2.9,1.7,3.6,3.2
		c6.7,13.1,13.4,26.3,20.3,40c6-11.8,11.7-23.1,17.4-34.3c15.4-30.4,30.8-60.8,46-91.3c1.3-2.7,3-3.1,5.7-3.5
		c9.4-1.5,13.9,2.4,18.2,11c33.8,68.2,68.3,136,102.6,204c0.7,1.5,1.4,2.9,2.5,5.1c-5,0-9.5,0-14.1,0c-2.9,0-3.2-2.5-4.1-4.3
		c-16-31.6-31.9-63.2-47.8-94.9c-3.7-7.2-7.4-14.4-11.3-22.2c-10.4,18.3-20.5,36.3-30.7,54.2c-12.1,21.4-24.1,42.7-36.1,64.1
		c-1.2,2.1-2.4,3.2-5,3.1c-4.1-0.2-8.3-0.1-13.3-0.1c3-5.3,5.6-10.2,8.4-15c22.4-39.5,44.7-79,67.2-118.5c1.3-2.4,1.6-4.3,0.2-6.8
		c-3.8-6.9-7.2-14.1-11.2-22c-4.9,9.3-9.4,17.8-13.8,26.3c-23,44-46,88-68.9,132.1c-1.6,3.1-3.4,4.4-6.9,4.1
		c-3.6-0.3-7.3-0.1-11.6-0.1c5.8-11.1,11.3-21.8,16.9-32.5c24.8-47.5,49.7-95,74.6-142.5c1.2-2.3,1.3-4,0.1-6.3
		c-3.9-7.3-7.4-14.7-11.5-22.8c-9.7,19.2-18.9,37.7-28.2,56.1c-24.3,48.1-48.7,96.3-72.9,144.5c-1.4,2.7-3.1,3.3-6,3.8
		c-9.1,1.4-14.2-1.9-17.5-10.6c-3.3-8.6-8.2-16.6-12.5-25.2c-6.3,11.2-12.4,21.8-18.3,32.5c-1.3,2.4-2.6,3.4-5.4,3.2
		c-4.1-0.3-8.2-0.1-13-0.1c7-12.4,13.6-24.2,20.3-36c2.8-5.1,7.7-10,7.9-15.2c0.2-4.9-4.4-10-6.9-15c-1.6-3.2-3.2-6.4-5.2-10.4
		c-5.2,9.8-10,18.9-14.8,28.1c-7.8,15-15.6,29.9-23.3,45c-1.4,2.7-3.1,3.9-6.2,3.6C54.9,340.6,51.1,340.8,46.6,340.8z"/>
	<path class="st1" d="M418.1,340.8c-5,0-9.4-0.2-13.9,0.1c-2.8,0.2-3.2-2-4.1-3.6c-14.6-29-29.2-58-43.8-86.9
		c-20.9-41.5-41.9-83-62.9-124.5c-2.5-4.9-2.4-4.4,3-5.1c8.2-1.1,12,2.1,15.6,9.5c34.2,68.6,68.9,136.9,103.4,205.3
		C416.4,337.1,417.1,338.7,418.1,340.8z"/>
	<path class="st1" d="M455.1,340.8c-5,0-9.4-0.2-13.9,0.1c-2.9,0.1-3.1-2.1-4-3.7c-12-23.8-24-47.5-35.9-71.3
		c-23.5-46.6-47-93.1-70.4-139.6c-2.7-5.3-2.6-4.7,3.3-5.5c7.8-1,11.4,2.2,14.8,9.1c34.2,68.6,68.9,136.9,103.4,205.3
		C453.3,336.8,454.1,338.5,455.1,340.8z"/>
</g>
</svg>
