<svg width="512" height="446" viewBox="0 0 512 446" fill="none" xmlns="http://www.w3.org/2000/svg">
<path d="M434.37 288.663C434.37 292.806 437.728 296.163 441.87 296.163H504.5C508.642 296.163 512 292.806 512 288.663C512 224.373 488.251 163.32 444.992 116.03L460.637 94.502C462.806 91.518 462.482 87.4 459.875 84.791C459.876 84.79 459.876 84.789 459.877 84.788C405.42 30.329 333.015 0.336975 256 0.336975C251.858 0.336975 248.5 3.69397 248.5 7.83698C248.5 11.98 251.858 15.337 256 15.337C326.065 15.337 392.094 41.536 442.933 89.277L428.655 99.653C381.377 56.405 320.316 32.663 256 32.663C217.333 32.663 180.179 41.069 145.57 57.649C141.834 59.438 140.257 63.918 142.046 67.653C143.836 71.388 148.316 72.967 152.05 71.176C182.377 56.648 214.789 48.797 248.5 47.783V95.448C225.045 96.335 202.279 101.376 180.729 110.494C160.003 119.258 141.185 131.44 124.68 146.735L90.976 113.031C100.801 103.798 111.391 95.379 122.553 87.957C126.002 85.664 126.939 81.008 124.645 77.559C122.352 74.111 117.696 73.172 114.247 75.467C100.189 84.815 86.976 95.639 74.976 107.639C74.822 107.793 74.675 107.954 74.536 108.12C26.465 156.43 0 220.52 0 288.663C0 292.806 3.358 296.163 7.5 296.163H70.13C74.272 296.163 77.63 292.806 77.63 288.663C77.63 241.018 96.184 196.226 129.873 162.537C146.258 146.151 165.334 133.291 186.572 124.31C208.555 115.008 231.914 110.292 256 110.292C295.07 110.292 333.035 123.154 363.951 146.673L295.91 196.118C285.503 186.232 271.453 180.147 256 180.147C224.014 180.147 197.992 206.169 197.992 238.155C197.992 255.195 205.38 270.541 217.118 281.163H211.553C185.137 281.163 163.647 302.654 163.647 329.07V373.517C163.647 377.66 167.005 381.017 171.147 381.017H340.854C344.996 381.017 348.354 377.66 348.354 373.517V329.07C348.354 310.187 337.369 293.825 321.456 286.026L354.087 241.121C356.522 237.77 355.779 233.08 352.429 230.644C349.078 228.209 344.387 228.952 341.952 232.302L306.188 281.518C304.304 281.292 302.391 281.162 300.447 281.162H294.882C306.62 270.54 314.008 255.194 314.008 238.154C314.008 227.021 310.849 216.615 305.389 207.772L420.644 124.016L362.523 203.993C360.088 207.344 360.83 212.034 364.181 214.47C365.513 215.437 367.055 215.904 368.584 215.904C370.903 215.903 373.19 214.832 374.657 212.812L397.991 180.704C407.035 192.58 414.541 205.501 420.353 219.235C429.654 241.217 434.37 264.577 434.37 288.663V288.663ZM62.771 281.163H15.114C16.908 222.112 39.882 166.704 80.39 123.66L114.072 157.342C82.542 191.355 64.526 234.817 62.771 281.163ZM263.5 95.447V47.791C320.255 49.527 373.921 70.931 416.24 108.674L376.576 137.498C344.387 111.802 304.695 97.049 263.5 95.447ZM300.447 296.163C318.592 296.163 333.353 310.925 333.353 329.07V366.017H305.926V353.313C305.926 349.17 302.568 345.813 298.426 345.813C294.284 345.813 290.926 349.17 290.926 353.313V366.017H221.072V353.313C221.072 349.17 217.714 345.813 213.572 345.813C209.43 345.813 206.072 349.17 206.072 353.313V366.017H178.645V329.07C178.645 310.924 193.407 296.163 211.551 296.163H300.447ZM256 281.163C232.285 281.163 212.992 261.87 212.992 238.155C212.992 214.44 232.285 195.147 256 195.147C279.715 195.147 299.008 214.44 299.008 238.155C299.008 261.87 279.715 281.163 256 281.163V281.163ZM435.971 128.442C473.725 170.772 495.148 224.431 496.885 281.163H449.228C448.341 257.707 443.285 234.942 434.166 213.39C427.283 197.124 418.207 181.911 407.163 168.083L435.971 128.442Z" fill="white"/>
<path d="M340.85 398.342H229.42C225.278 398.342 221.92 401.699 221.92 405.842C221.92 409.985 225.278 413.342 229.42 413.342H333.35V430.662H178.65V413.342H194.42C198.562 413.342 201.92 409.985 201.92 405.842C201.92 401.699 198.562 398.342 194.42 398.342H171.15C167.008 398.342 163.65 401.699 163.65 405.842V438.162C163.65 442.305 167.008 445.662 171.15 445.662H340.85C344.992 445.662 348.35 442.305 348.35 438.162V405.842C348.35 401.7 344.992 398.342 340.85 398.342Z" fill="white"/>
<path d="M504.5 312.592H441.87C437.728 312.592 434.37 315.949 434.37 320.092C434.37 324.235 437.728 327.592 441.87 327.592H504.5C508.642 327.592 512 324.235 512 320.092C512 315.949 508.642 312.592 504.5 312.592Z" fill="white"/>
<path d="M484.297 344.917H462.073C457.931 344.917 454.573 348.274 454.573 352.417C454.573 356.56 457.931 359.917 462.073 359.917H484.297C488.439 359.917 491.797 356.56 491.797 352.417C491.797 348.274 488.439 344.917 484.297 344.917Z" fill="white"/>
<path d="M70.13 312.592H7.5C3.358 312.592 0 315.949 0 320.092C0 324.235 3.358 327.592 7.5 327.592H70.13C74.272 327.592 77.63 324.235 77.63 320.092C77.63 315.949 74.272 312.592 70.13 312.592Z" fill="white"/>
<path d="M49.927 344.917H27.703C23.561 344.917 20.203 348.274 20.203 352.417C20.203 356.56 23.561 359.917 27.703 359.917H49.927C54.069 359.917 57.427 356.56 57.427 352.417C57.427 348.274 54.069 344.917 49.927 344.917Z" fill="white"/>
</svg>
